<svg width="32" height="32" viewBox="0 0 32 32" fill="none" xmlns="http://www.w3.org/2000/svg">
<g clip-path="url(#clip0_1541_4)">
<path fill-rule="evenodd" clip-rule="evenodd" d="M9.89292 9.4692C8.51123 10.2614 6.70581 11.1088 5.3057 12.5826C3.26079 14.4249 2.08175 17.2067 2.39493 20.1543C2.91076 25.0547 7.27691 28.5918 12.1405 28.076C14.1301 27.8733 15.8803 27.0075 17.2435 25.7547C17.9252 26.4364 18.5699 27.1917 19.1595 27.9102C19.3437 28.1497 19.2884 28.1497 19.4727 27.947C20.2464 27.118 21.0201 26.289 21.7939 25.4416C21.3333 25.4784 20.5043 25.6995 19.3069 26.9522C18.7726 26.3074 18.3857 25.7916 17.7594 25.2021C19.3805 23.3967 20.2648 20.9096 19.9885 18.2936C19.8043 16.6356 19.27 14.9223 18.4226 13.3748C17.8146 12.2694 17.8515 11.0351 18.6621 10.4272C19.8043 9.59816 20.5596 8.23489 20.5596 6.70582C20.5596 4.1635 18.4963 2.10017 15.9539 2.10017C13.4116 2.10017 11.3483 4.1635 11.3483 6.70582C11.3483 7.70063 11.2009 8.69545 9.85607 9.45078L9.89292 9.4692ZM9.65342 28.2602C9.67185 29.0155 9.635 30.6736 9.59816 30.8578C9.54289 31.1157 9.57973 31.0973 9.76396 31.0973C10.9062 31.0973 11.9747 31.0973 13.0984 31.0973C12.7668 30.7657 12.1405 30.3604 10.4088 30.342C10.4088 30.342 10.4272 29.513 10.4088 28.3708C10.1508 28.3523 9.91134 28.3155 9.65342 28.2786V28.2602Z" fill="#10B981"/>
<path fill-rule="evenodd" clip-rule="evenodd" d="M20.0253 4.03454C23.0466 2.4502 27.9102 0.97639 29.513 0.884277C29.6419 0.884277 29.6788 0.884277 29.5314 0.939545C27.4865 1.65803 23.6177 3.13183 20.5043 4.99251C20.3754 4.64248 20.2096 4.3293 20.0069 4.03454H20.0253Z" fill="#FFD34D"/>
<path fill-rule="evenodd" clip-rule="evenodd" d="M15.2355 11.1641C9.91134 9.28496 4.93725 12.6563 3.31606 15.8802C4.88198 12.122 10.114 8.51121 15.2355 11.1641V11.1641ZM17.2804 4.10822C16.9488 4.16349 16.7093 4.47667 16.7645 4.8267C16.8198 5.15831 17.133 5.3978 17.483 5.34253C17.8146 5.28727 18.0541 4.97408 17.9988 4.62405C17.9436 4.29245 17.6304 4.05295 17.2804 4.10822ZM15.346 2.52388C13.4301 3.07656 11.9931 5.06619 11.8273 6.90845C11.7352 5.04777 13.0984 2.92918 15.346 2.52388Z" fill="white"/>
</g>
<defs>
<clipPath id="clip0_1541_4">
<rect width="32" height="32" fill="white"/>
</clipPath>
</defs>
</svg>
